<?xml version="1.0" encoding="iso-8859-1"?>
<!-- Generator: Adobe Illustrator 19.0.0, SVG Export Plug-In . SVG Version: 6.00 Build 0)  -->
<svg version="1.1" id="Capa_1" xmlns="http://www.w3.org/2000/svg" xmlns:xlink="http://www.w3.org/1999/xlink" x="0px" y="0px"
	 viewBox="0 0 511.887 511.887" style="enable-background:new 0 0 511.887 511.887;" xml:space="preserve">
<path style="fill:#ED5565;" d="M116.987,483.259c16.962-16.962,5.654-39.578,5.654-39.578S100.016,466.298,116.987,483.259z
	 M100.016,364.515l-16.962,16.962l45.241,45.233l5.654-5.654l5.654,5.654c28.271,28.278,11.309,56.549,11.309,56.549l8.942,11.082
	c-24.319,18.665-59.158,18.213-110.896-33.526c-125.25-125.25,48.005-153.076,77.471-176.435
	c29.403-23.401,50.435-83.457,89.459-83.457c13.284-0.055-46.99,44.96,0.562,58.471l5.998,6.103l-31.949,31.161l11.308,11.308
	l-5.654,5.654l-11.308,11.309l-11.316-11.309l-22.616,22.616l-22.617,22.617l-16.97,16.971L100.016,364.515z"/>
<g style="opacity:0.4;">
	<path style="fill:#FFFFFF;" d="M132.083,290.035c27.849-22.172,48.225-77.14,83.469-82.887c2.53-3.834,3.397-6.232,0.336-6.224
		c-39.024,0-60.056,60.056-89.459,83.457c-29.466,23.358-202.722,51.184-77.472,176.434c1.078,1.078,2.101,1.999,3.17,3.038
		C-68.015,340.868,102.828,313.229,132.083,290.035z"/>
</g>
<path style="fill:#ED5565;" d="M196.152,313.62l5.654-5.654l11.308,11.309l13.347-13.683l6.053,5.936
	c3.101,56.494,51.848-1.414,51.848,17.813c0,31.215-46.99,42.469-65.483,61.978c-10.848,11.425-24.366,76.51-59.025,103.023
	l-8.942-11.082c0,0,16.962-28.271-11.309-56.549l-5.654-5.654l11.309-11.309l-11.309-11.308l16.963-16.963l22.616-22.624
	l22.625-22.617l-11.308-11.308L196.152,313.62z"/>
<path style="fill:#E6E9ED;" d="M150.92,483.259c0,0,16.962-28.278-11.309-56.549l-5.654-5.654l11.309-11.316l-11.309-11.308
	l-11.316-11.309l-11.308-11.308l-11.309-11.309l-5.654,5.654l-5.654-5.654c-33.933-33.934,51.067-39.415,107.437-96.129
	l12.105-12.101c2.257,1.132,5.029,2.21,8.2,3.108l6.052,6.048l-0.062,0.062l-31.949,31.153l11.308,11.308l11.316,11.309
	l13.347-13.675l0.055-0.055l5.99,5.99c3.108,56.486,51.848-1.414,51.848,17.813c0,31.215-46.982,42.461-65.476,61.97
	c-10.855,11.425-24.374,76.51-59.033,103.031c-6.388,4.92-13.573,8.481-21.602,10.176L150.92,483.259z"/>
<path style="fill:#FFFFFF;" d="M201.807,274.033l12.105-12.101l2.546-2.546c-3.171-0.898-5.943-1.977-8.2-3.108l-12.105,12.101
	c-56.37,56.714-141.37,62.195-107.437,96.129l5.654,5.654C60.437,336.228,145.437,330.746,201.807,274.033z"/>
<g style="opacity:0.2;">
	<path d="M218.886,391.31c18.493-19.509,65.476-30.755,65.476-61.97c0-4.14-2.28-4.693-5.85-3.593
		c-2.069,29.622-47.217,40.845-65.28,59.908c-10.855,11.425-24.374,76.51-59.033,103.031c-1.562,1.203-3.178,2.32-4.826,3.351
		c-0.391,0.25-0.812,0.445-1.21,0.68c-1.312,0.781-2.64,1.53-4.015,2.187c-0.304,0.156-0.625,0.266-0.937,0.406
		c-1.492,0.688-3.015,1.328-4.569,1.866c-0.32,0.109-0.648,0.18-0.96,0.289c-1.539,0.5-3.116,0.945-4.733,1.297
		c-0.117,0.031-0.234,0.078-0.351,0.102l0.023-0.039c-21.609,4.521-49.419-5.015-85.734-40.196c0.719,0.742,1.32,1.438,2.07,2.187
		c38.095,38.096,66.999,48.334,89.318,43.663l-0.023,0.039c0.117-0.023,0.234-0.07,0.352-0.102c1.617-0.343,3.194-0.796,4.733-1.296
		c0.312-0.102,0.64-0.18,0.96-0.289c1.555-0.539,3.077-1.171,4.569-1.866c0.312-0.141,0.632-0.25,0.937-0.398
		c1.375-0.664,2.702-1.414,4.015-2.194c0.398-0.234,0.82-0.43,1.21-0.68c1.648-1.03,3.265-2.147,4.827-3.351
		C194.512,467.82,208.031,402.735,218.886,391.31z"/>
</g>
<g>
	<path style="fill:#3A3847;" d="M173.77,453.365c-2.21,0-4.037-1.789-4.037-3.998c0-2.211,1.749-3.999,3.951-3.999h0.086
		c2.202,0,3.999,1.788,3.999,3.999C177.769,451.576,175.972,453.365,173.77,453.365z"/>
	<path style="fill:#3A3847;" d="M168.116,436.402c-2.21,0-4.037-1.788-4.037-3.998s1.749-3.998,3.951-3.998h0.086
		c2.203,0,3.999,1.788,3.999,3.998S170.318,436.402,168.116,436.402z"/>
	<path style="fill:#3A3847;" d="M162.462,419.44c-2.21,0-4.038-1.788-4.038-3.999c0-2.21,1.749-3.998,3.952-3.998h0.086
		c2.202,0,3.999,1.788,3.999,3.998C166.461,417.652,164.664,419.44,162.462,419.44z"/>
</g>
<path style="fill:#656D78;" d="M122.641,443.681c0,0,11.308,22.616-5.654,39.578C100.016,466.298,122.641,443.681,122.641,443.681z"
	/>
<g style="opacity:0.3;">
	<path style="fill:#FFFFFF;" d="M124.82,449.733c-1.023-3.717-2.179-6.052-2.179-6.052s-22.625,22.616-5.654,39.578
		c1.483-1.483,2.679-3.021,3.748-4.568C114.441,468.218,120.017,456.637,124.82,449.733z"/>
</g>
<path style="fill:#656D78;" d="M425.895,100.836L226.462,305.591l-13.347,13.683l-11.308-11.309l-11.308-11.308l31.949-31.161
	L408.933,83.873c4.693-4.693,11.933-17.704,7.239-22.397l7.185-3.562l14.3-7.067l14.362-7.13l14.307-7.06l0.055,0.055l14.361-7.13
	l14.315-7.06l7.177-3.569l5.654,16.853c-45.24,33.933-56.549,56.549-56.549,56.549S437.204,89.527,425.895,100.836z"/>
<g style="opacity:0.2;">
	<path d="M507.888,35.805l-5.654-16.853l-3.225,1.601l3.225,9.599c-45.24,33.925-54.722,54.722-54.722,54.722
		s-15.963-1-27.271,10.309L220.807,299.937L207.46,313.62l5.654,5.654l13.347-13.683l199.434-204.756
		c11.309-11.309,25.444-8.481,25.444-8.481S462.648,69.737,507.888,35.805z"/>
</g>
<g style="opacity:0.3;">
	<path style="fill:#FFFFFF;" d="M414.588,89.527c4.693-4.693,12.55-17.08,10.238-23.694l4.186-2.265l14.3-7.067l14.361-7.131
		l14.308-7.06l0.055,0.055l14.369-7.13l14.308-7.06l3.952-1.968l-2.43-7.255l-7.177,3.569l-14.315,7.06l-14.361,7.13l-0.055-0.055
		l-14.307,7.06l-14.362,7.13l-14.3,7.067l-7.185,3.562c4.693,4.693-2.546,17.704-7.239,22.397L222.448,265.497l-31.949,31.161
		l5.654,5.653l31.949-31.16L414.588,89.527z"/>
</g>
<polygon style="fill:#AAB2BD;" points="128.295,426.711 83.054,381.477 100.016,364.515 111.325,375.824 122.641,387.132 
	133.949,398.44 145.257,409.748 133.949,421.056 "/>
<g style="opacity:0.2;">
	
		<rect x="129.954" y="403.402" transform="matrix(-0.7071 -0.7071 0.7071 -0.7071 -65.0585 803.8442)" width="7.996" height="23.988"/>
</g>
<g style="opacity:0.7;">
	
		<rect x="90.367" y="363.823" transform="matrix(-0.7071 -0.7071 0.7071 -0.7071 -104.6512 708.2863)" style="fill:#FFFFFF;" width="7.996" height="23.988"/>
</g>
<g>
	<path style="fill:#3A3847;" d="M128.178,509.539c-24.03,0-51.481-15.33-82.048-45.896C10.471,427.984-4.273,397.549,1.061,370.59
		c7.786-39.345,56.713-59.728,92.442-74.612c13.409-5.584,24.983-10.402,30.442-14.729c10.207-8.13,19.399-20.91,29.138-34.448
		c17.626-24.522,35.861-49.876,62.805-49.876c0.016,0,0.023,0,0.039,0c3.358,0,4.795,1.816,5.35,2.897
		c1.921,3.757-0.983,7.759-6.263,15.022c-6.208,8.547-15.596,21.464-12.566,30.219c1.57,4.557,6.654,8.087,15.096,10.484
		c2.125,0.605,3.358,2.815,2.757,4.939c-0.609,2.116-2.804,3.343-4.944,2.757c-11.105-3.159-17.993-8.396-20.469-15.568
		c-4.389-12.694,6.037-27.053,13.659-37.533c1.171-1.616,2.499-3.44,3.538-4.99c-21,2.487-37.002,24.749-52.512,46.319
		c-10.067,13.995-19.571,27.216-30.653,36.042c-6.333,5.014-17.813,9.801-32.339,15.854c-34.066,14.19-80.712,33.62-87.67,68.779
		c-4.709,23.804,9.715,52.684,42.875,85.843c43.5,43.5,78.057,54.34,105.632,33.184c22.062-16.877,35.378-50.396,45.101-74.879
		c5.373-13.526,9.263-23.304,13.464-27.732c6.755-7.122,16.611-12.924,27.045-19.07c18.36-10.801,37.33-21.969,37.338-40.134
		c-2.108,0.5-6.24,2.577-9.122,4.03c-9.738,4.896-21.859,10.987-31.449,5.443c-6.803-3.944-10.488-12.801-11.27-27.084
		c-0.125-2.203,1.57-4.093,3.772-4.21c2.218-0.233,4.092,1.57,4.209,3.772c0.609,11.066,3.132,18.188,7.294,20.602
		c5.842,3.39,15.838-1.632,23.852-5.67c7.645-3.842,13.174-6.591,17.399-3.975c1.507,0.929,3.312,2.912,3.312,7.075
		c0,22.749-21.93,35.659-41.274,47.045c-9.941,5.85-19.321,11.371-25.303,17.681c-3.147,3.312-7.169,13.448-11.832,25.179
		c-10.066,25.35-23.858,60.056-47.669,78.275C151.841,505.533,140.455,509.539,128.178,509.539z"/>
	<path style="fill:#3A3847;" d="M213.115,323.272c-1.062,0-2.077-0.421-2.827-1.171l-22.616-22.617
		c-0.758-0.757-1.18-1.78-1.172-2.85s0.445-2.094,1.211-2.844L406.145,81.006c1.577-1.526,4.107-1.507,5.654,0.078
		c1.538,1.582,1.507,4.112-0.078,5.654l-215.53,209.958l16.884,16.884L423.029,98.048c1.562-1.593,4.093-1.605,5.654-0.078
		c1.586,1.542,1.617,4.072,0.078,5.654L215.981,322.07c-0.75,0.766-1.772,1.194-2.843,1.202
		C213.131,323.272,213.123,323.272,213.115,323.272z"/>
	<path style="fill:#3A3847;" d="M207.461,306.31c-1.022,0-2.046-0.391-2.827-1.172c-1.562-1.562-1.562-4.092,0-5.654L420.242,83.873
		c1.562-1.562,4.092-1.562,5.653,0c1.562,1.562,1.562,4.093,0,5.654L210.288,305.138C209.507,305.92,208.484,306.31,207.461,306.31z
		"/>
	<path style="fill:#3A3847;" d="M122.641,413.747c-1.023,0-2.046-0.391-2.827-1.171c-1.562-1.562-1.562-4.093,0-5.654l84.82-84.82
		c1.562-1.562,4.092-1.562,5.654,0c1.562,1.562,1.562,4.092,0,5.654l-84.82,84.82C124.687,413.356,123.664,413.747,122.641,413.747z
		"/>
	<path style="fill:#3A3847;" d="M111.325,402.438c-1.023,0-2.046-0.39-2.827-1.171c-1.562-1.562-1.562-4.093,0-5.654l84.828-84.82
		c1.562-1.562,4.092-1.562,5.654,0c1.562,1.562,1.562,4.092,0,5.654l-84.828,84.82C113.371,402.048,112.348,402.438,111.325,402.438
		z"/>
	<path style="fill:#3A3847;" d="M100.016,391.131c-1.023,0-2.046-0.391-2.827-1.172c-1.562-1.562-1.562-4.092,0-5.654l84.828-84.82
		c1.562-1.562,4.092-1.562,5.654,0c1.562,1.562,1.562,4.093,0,5.654l-84.828,84.82C102.062,390.74,101.04,391.131,100.016,391.131z"
		/>
	<path style="fill:#3A3847;" d="M201.807,345.889c-1.023,0-2.046-0.391-2.827-1.172l-33.933-33.925
		c-1.562-1.562-1.562-4.092,0-5.654c1.562-1.562,4.092-1.562,5.654,0l33.933,33.925c1.562,1.562,1.562,4.093,0,5.654
		C203.853,345.499,202.83,345.889,201.807,345.889z"/>
	<path style="fill:#3A3847;" d="M156.566,391.131c-1.023,0-2.046-0.391-2.827-1.172l-33.925-33.933
		c-1.562-1.562-1.562-4.093,0-5.654s4.092-1.562,5.654,0l33.925,33.933c1.562,1.562,1.562,4.092,0,5.654
		C158.612,390.74,157.589,391.131,156.566,391.131z"/>
	<path style="fill:#3A3847;" d="M179.182,368.513c-1.023,0-2.046-0.391-2.827-1.172l-33.925-33.932
		c-1.562-1.562-1.562-4.093,0-5.654c1.562-1.562,4.092-1.562,5.654,0l33.925,33.933c1.562,1.562,1.562,4.092,0,5.653
		C181.228,368.123,180.206,368.513,179.182,368.513z"/>
	<path style="fill:#3A3847;" d="M128.295,430.709c-1.023,0-2.046-0.39-2.827-1.171l-45.241-45.234
		c-0.75-0.75-1.172-1.765-1.172-2.827c0-1.062,0.422-2.077,1.172-2.827l16.962-16.962c1.562-1.562,4.093-1.562,5.654,0
		l45.241,45.233c1.562,1.562,1.562,4.092,0,5.654l-16.963,16.962C130.341,430.319,129.318,430.709,128.295,430.709z M88.708,381.477
		l39.587,39.579l11.308-11.309l-39.587-39.578L88.708,381.477z"/>
	<path style="fill:#3A3847;" d="M116.987,487.258c-1.023,0-2.046-0.391-2.827-1.171c-1.562-1.562-1.562-4.093,0-5.654
		c14.666-14.667,5.303-34.152,4.896-34.972c-0.969-1.976-0.164-4.374,1.812-5.357c1.992-0.977,4.366-0.172,5.35,1.788
		c4.358,8.716,8.622,29.169-6.404,44.195C119.033,486.868,118.009,487.258,116.987,487.258z"/>
	<path style="fill:#3A3847;" d="M116.987,487.258c-1.023,0-2.046-0.391-2.827-1.171c-8.224-8.217-9.723-18.813-4.35-30.63
		c3.795-8.341,9.754-14.354,10.004-14.604c1.562-1.555,4.084-1.562,5.646,0c1.562,1.554,1.57,4.084,0.016,5.653
		c-0.812,0.805-19.586,20.009-5.662,33.926c1.562,1.562,1.562,4.092,0,5.654C119.033,486.868,118.009,487.258,116.987,487.258z"/>
	<path style="fill:#3A3847;" d="M150.92,487.251c-0.703,0-1.406-0.18-2.046-0.562c-1.898-1.124-2.515-3.576-1.398-5.475
		c0.625-1.054,14.909-26.061-10.699-51.676c-1.562-1.562-1.562-4.093,0-5.654c1.562-1.562,4.092-1.562,5.654,0
		c30.129,30.138,12.097,61.126,11.91,61.431C153.59,486.563,152.27,487.251,150.92,487.251z"/>
	<path style="fill:#3A3847;" d="M88.708,368.513c-1.023,0-2.046-0.391-2.827-1.172c-6.873-6.872-9.731-13.244-8.739-19.5
		c1.96-12.378,18.392-20.758,41.141-32.355c22.96-11.706,51.528-26.279,75.035-49.927c1.554-1.569,4.084-1.569,5.654-0.016
		c1.562,1.555,1.57,4.085,0.016,5.654c-24.405,24.554-53.605,39.446-77.073,51.411c-19.071,9.73-35.55,18.126-36.877,26.482
		c-0.555,3.545,1.569,7.66,6.497,12.597c1.562,1.562,1.562,4.092,0,5.653C90.755,368.123,89.731,368.513,88.708,368.513z"/>
	<path style="fill:#3A3847;" d="M425.895,104.834c-1.022,0-2.046-0.39-2.827-1.171c-1.562-1.562-1.562-4.093,0-5.654
		c12.668-12.675,28.404-9.708,29.053-9.575c2.17,0.433,3.576,2.538,3.139,4.706c-0.438,2.171-2.616,3.573-4.701,3.135
		c-0.508-0.094-12.269-2.179-21.836,7.388C427.941,104.444,426.919,104.834,425.895,104.834z"/>
	<path style="fill:#3A3847;" d="M451.332,96.345c-0.602,0-1.211-0.137-1.789-0.425c-1.968-0.992-2.764-3.382-1.78-5.354
		c0.477-0.957,12.253-23.854,57.729-57.959c1.757-1.324,4.265-0.977,5.6,0.8c1.319,1.765,0.961,4.272-0.805,5.595
		c-43.687,32.77-55.261,54.933-55.378,55.151C454.205,95.545,452.792,96.345,451.332,96.345z"/>
	<path style="fill:#3A3847;" d="M507.888,39.803c-1.671,0-3.232-1.054-3.787-2.726l-5.654-16.853
		c-0.141-0.41-0.211-0.839-0.211-1.273c0-2.21,1.788-4.053,3.998-4.053c1.945,0,3.569,1.351,3.929,3.182l5.514,16.451
		c0.702,2.093-0.422,4.361-2.515,5.064C508.74,39.737,508.31,39.803,507.888,39.803z"/>
	<path style="fill:#3A3847;" d="M408.933,87.872c-1.023,0-2.047-0.391-2.827-1.172c-1.562-1.562-1.562-4.092,0-5.654
		c1.812-1.812,4.545-5.677,6.263-9.887c1.656-4.049,1.477-6.353,0.977-6.856c-1.562-1.562-1.562-4.093,0-5.654
		c1.562-1.562,4.092-1.562,5.654,0c7.31,7.31-2.218,23.03-7.239,28.052C410.979,87.481,409.957,87.872,408.933,87.872z"/>
	<path style="fill:#3A3847;" d="M416.172,65.473c-1.468,0-2.882-0.816-3.585-2.222c-0.976-1.979-0.172-4.377,1.812-5.357
		l50.153-24.823c1.983-0.964,4.389-0.168,5.357,1.816c0.976,1.979,0.163,4.377-1.812,5.354l-50.153,24.815
		C417.375,65.34,416.774,65.473,416.172,65.473z"/>
	<path style="fill:#3A3847;" d="M466.381,40.71c-1.469,0-2.882-0.812-3.585-2.222c-0.976-1.976-0.171-4.377,1.805-5.357
		l35.854-17.759c1.96-0.976,4.374-0.184,5.357,1.8c0.984,1.976,0.18,4.377-1.796,5.361l-35.854,17.759
		C467.591,40.577,466.982,40.71,466.381,40.71z"/>
	<path style="fill:#3A3847;" d="M495.057,26.519c-1.468,0-2.882-0.812-3.585-2.222l-7.13-14.37
		c-0.976-1.976-0.172-4.377,1.804-5.357c1.992-0.979,4.374-0.183,5.365,1.805l7.131,14.369c0.976,1.976,0.172,4.377-1.805,5.357
		C496.26,26.386,495.659,26.519,495.057,26.519z"/>
	<path style="fill:#3A3847;" d="M484.366,13.899c-1.476,0-2.897-0.82-3.593-2.237c-0.968-1.98-0.156-4.378,1.828-5.35l7.169-3.546
		c1.96-0.976,4.374-0.184,5.357,1.8c0.984,1.976,0.18,4.378-1.796,5.361l-7.201,3.562C485.561,13.766,484.96,13.899,484.366,13.899z
		"/>
	<path style="fill:#3A3847;" d="M480.742,33.579c-1.468,0-2.881-0.812-3.584-2.222l-7.123-14.354
		c-0.976-1.976-0.171-4.378,1.805-5.357c1.991-0.988,4.373-0.18,5.365,1.804l7.122,14.354c0.977,1.976,0.172,4.377-1.804,5.357
		C481.945,33.446,481.343,33.579,480.742,33.579z"/>
	<path style="fill:#3A3847;" d="M470.004,21.029c-1.468,0-2.881-0.812-3.576-2.214c-0.984-1.976-0.188-4.377,1.788-5.361
		l7.208-3.573c1.984-0.964,4.374-0.16,5.35,1.824c0.977,1.979,0.164,4.377-1.819,5.354l-7.161,3.549
		C471.214,20.896,470.605,21.029,470.004,21.029z"/>
	<path style="fill:#3A3847;" d="M466.341,40.698c-1.008,0-2.015-0.387-2.788-1.16l-0.055-0.055
		c-0.312-0.309-0.562-0.664-0.758-1.058l-7.067-14.315c-0.977-1.979-0.164-4.377,1.812-5.354c1.983-0.977,4.382-0.164,5.357,1.815
		l7.014,14.198c0.812,1.522,0.601,3.463-0.672,4.74C468.395,40.299,467.365,40.698,466.341,40.698z"/>
	<path style="fill:#3A3847;" d="M455.697,28.097c-1.469,0-2.89-0.816-3.584-2.23c-0.977-1.979-0.164-4.377,1.812-5.354l7.161-3.553
		c1.991-0.992,4.389-0.188,5.365,1.792c0.984,1.976,0.188,4.377-1.788,5.361l-7.193,3.569
		C456.9,27.964,456.291,28.097,455.697,28.097z"/>
	<path style="fill:#3A3847;" d="M452.019,47.715c-1.469,0-2.891-0.816-3.585-2.226l-7.067-14.3
		c-0.977-1.979-0.164-4.377,1.812-5.357c1.96-0.968,4.373-0.176,5.357,1.812l7.067,14.299c0.977,1.98,0.164,4.377-1.812,5.357
		C453.221,47.582,452.62,47.715,452.019,47.715z"/>
	<path style="fill:#3A3847;" d="M441.39,35.165c-1.477,0-2.898-0.82-3.593-2.238c-0.969-1.98-0.156-4.377,1.827-5.349l7.131-3.507
		c1.983-0.969,4.373-0.156,5.35,1.823c0.976,1.98,0.163,4.377-1.82,5.354l-7.13,3.507C442.585,35.032,441.983,35.165,441.39,35.165z
		"/>
	<path style="fill:#3A3847;" d="M437.657,54.844c-1.468,0-2.89-0.816-3.585-2.226l-7.067-14.307
		c-0.977-1.984-0.164-4.381,1.812-5.357c1.953-0.968,4.381-0.175,5.357,1.812l7.068,14.307c0.976,1.984,0.164,4.381-1.812,5.357
		C438.859,54.712,438.258,54.844,437.657,54.844z"/>
	<path style="fill:#3A3847;" d="M427.028,42.295c-1.468,0-2.89-0.816-3.585-2.229c-0.976-1.979-0.164-4.377,1.812-5.354l7.177-3.558
		c1.968-0.983,4.381-0.18,5.357,1.8c0.983,1.976,0.18,4.377-1.796,5.361L428.8,41.88C428.23,42.162,427.622,42.295,427.028,42.295z"
		/>
	<path style="fill:#3A3847;" d="M423.357,61.912c-1.468,0-2.889-0.816-3.584-2.226l-7.076-14.307
		c-0.976-1.979-0.164-4.377,1.812-5.357c1.96-0.969,4.373-0.176,5.357,1.812l7.075,14.308c0.976,1.979,0.164,4.377-1.812,5.357
		C424.56,61.78,423.959,61.912,423.357,61.912z"/>
	<path style="fill:#3A3847;" d="M412.72,49.362c-1.468,0-2.889-0.815-3.584-2.229c-0.977-1.979-0.164-4.377,1.812-5.354l7.138-3.518
		c1.992-0.972,4.374-0.156,5.35,1.824c0.977,1.979,0.164,4.377-1.819,5.354l-7.122,3.51C413.923,49.23,413.314,49.362,412.72,49.362
		z"/>
</g>
<g>
</g>
<g>
</g>
<g>
</g>
<g>
</g>
<g>
</g>
<g>
</g>
<g>
</g>
<g>
</g>
<g>
</g>
<g>
</g>
<g>
</g>
<g>
</g>
<g>
</g>
<g>
</g>
<g>
</g>
</svg>
